<svg xmlns="http://www.w3.org/2000/svg" width="32" height="32" fill="currentColor"><path fill-rule="evenodd" clip-rule="evenodd" d="M6.571 10.714c0-1.183.96-2.143 2.143-2.143h3.881c.812 0 1.554.459 1.917 1.185l.293.586A3 3 0 0 0 17.488 12h5.798c1.183 0 2.143.96 2.143 2.143v7.714c0 1.184-.96 2.143-2.143 2.143H8.714a2.143 2.143 0 0 1-2.143-2.143V10.714zM8.714 6A4.714 4.714 0 0 0 4 10.714v11.143a4.714 4.714 0 0 0 4.714 4.714h14.572A4.714 4.714 0 0 0 28 21.857v-7.714a4.714 4.714 0 0 0-4.714-4.714h-5.798a.429.429 0 0 1-.383-.237l-.293-.586A4.714 4.714 0 0 0 12.595 6h-3.88zm7.766 9.31a1.25 1.25 0 1 0 0 2.5h4.8a1.25 1.25 0 1 0 0-2.5h-4.8z"/></svg>