<svg xmlns="http://www.w3.org/2000/svg" width="32" height="32" fill="currentColor"><path fill-rule="evenodd" clip-rule="evenodd" d="M5.42 8.208C5.42 7.54 5.96 7 6.628 7h11.277c1.98 0 3.72 1.31 4.264 3.212l.689 2.406c.04.138.15.245.29.28l2.713.677A2.819 2.819 0 0 1 28 16.309v1.963c0 1.145-.683 2.13-1.665 2.571a4.029 4.029 0 0 1-3.98 4.675 4.029 4.029 0 0 1-4.012-4.428h-4.879a4.029 4.029 0 0 1-4.012 4.428 4.029 4.029 0 0 1-3.697-5.636h-.739a1.209 1.209 0 1 1 0-2.415h4.032c.049 0 .096.003.143.008a4.023 4.023 0 0 1 3.14 1.2h7.144a4.024 4.024 0 0 1 2.88-1.208c1.126 0 2.144.461 2.876 1.204a.403.403 0 0 0 .35-.399V16.31a.403.403 0 0 0-.306-.39l-2.713-.678a2.82 2.82 0 0 1-2.03-1.96l-.688-2.406a2.016 2.016 0 0 0-1.939-1.46H6.63c-.668 0-1.21-.54-1.21-1.207zm4.032 14.895c.89 0 1.613-.72 1.613-1.61 0-.89-.723-1.61-1.613-1.61a1.61 1.61 0 1 0 0 3.22zm12.903 0a1.61 1.61 0 1 0 0-3.22 1.61 1.61 0 1 0 0 3.22z"/><path d="M4.21 12.636a1.209 1.209 0 1 0 0 2.416h8.064a1.209 1.209 0 1 0 0-2.416H4.21z"/></svg>