<svg xmlns="http://www.w3.org/2000/svg" width="32" height="32" fill="currentColor"><path d="M24.784 5.847a.748.748 0 0 0 0-1.052l-1.563-1.577a.732.732 0 0 0-1.042 0L20.77 4.64l2.605 2.63 1.41-1.424zm-2.452 2.475-2.605-2.63-5.452 5.502a2.988 2.988 0 0 0-.863 2.092l-.003 1.038a.37.37 0 0 0 .37.373l1.028-.003a2.934 2.934 0 0 0 2.074-.871l5.45-5.501z"/><path d="M8.21 8.295a1.85 1.85 0 0 1 1.843-1.859h4.79c.61 0 1.104-.5 1.104-1.115a1.11 1.11 0 0 0-1.105-1.115h-4.79C7.815 4.206 6 6.036 6 8.296V23.91C6 26.17 7.814 28 10.053 28h9.579c2.238 0 4.052-1.831 4.052-4.09V13.13a1.11 1.11 0 0 0-1.105-1.116c-.61 0-1.105.5-1.105 1.116v10.78a1.85 1.85 0 0 1-1.842 1.86h-9.58a1.85 1.85 0 0 1-1.841-1.86V8.295z"/><path d="M11.526 16.846c-.61 0-1.105.5-1.105 1.116a1.11 1.11 0 0 0 1.105 1.115h6.632c.61 0 1.105-.5 1.105-1.115a1.11 1.11 0 0 0-1.105-1.116h-6.632zm-1.105 5.577a1.11 1.11 0 0 1 1.105-1.115h4.053c.61 0 1.105.5 1.105 1.115a1.11 1.11 0 0 1-1.105 1.116h-4.053c-.61 0-1.105-.5-1.105-1.116z"/></svg>