<svg xmlns="http://www.w3.org/2000/svg" width="32" height="32" fill="currentColor"><path d="M14.954 20.926a1.194 1.194 0 0 0 0 2.389h1.592a1.194 1.194 0 1 0 0-2.39h-1.592z"/><path fill-rule="evenodd" clip-rule="evenodd" d="M7.156 7.24A2.787 2.787 0 0 1 9.889 5H21.61c1.329 0 2.472.938 2.733 2.24l.955 4.778a2.787 2.787 0 0 1-2.732 3.334H20.54l1.097 2.742.017.045h2.059a2.787 2.787 0 0 1 2.787 2.787v2.389a2.787 2.787 0 0 1-2.787 2.787H7.787A2.787 2.787 0 0 1 5 23.315v-2.39a2.787 2.787 0 0 1 2.787-2.786h2.06l.016-.045 1.097-2.742H8.933A2.787 2.787 0 0 1 6.2 12.018l.956-4.778zm11.926 10.9h-6.664l1.115-2.787h4.434l1.115 2.787zM9.889 7.389a.398.398 0 0 0-.39.32l-.956 4.778c-.05.246.14.476.39.476h13.634c.25 0 .44-.23.39-.476l-.956-4.778a.398.398 0 0 0-.39-.32H9.889zM7.787 20.528a.398.398 0 0 0-.398.398v2.389c0 .22.178.398.398.398h15.926c.22 0 .398-.178.398-.398v-2.39a.398.398 0 0 0-.398-.397H7.787z"/></svg>