<svg xmlns="http://www.w3.org/2000/svg" width="32" height="32" fill="currentColor"><path fill-rule="evenodd" clip-rule="evenodd" d="M9.442 5c-.892 0-1.615.723-1.615 1.615v3.231c0 .892.723 1.615 1.615 1.615h.404v2.424h-.404A4.442 4.442 0 0 0 5 18.327v3.23A4.442 4.442 0 0 0 9.442 26h3.231a4.442 4.442 0 0 0 4.442-4.442v-.404h2.424v.404c0 .892.723 1.615 1.615 1.615h3.23c.893 0 1.616-.723 1.616-1.615v-3.231c0-.892-.723-1.616-1.615-1.616h-3.231c-.892 0-1.616.724-1.616 1.616v.404h-2.423v-.404c0-.787-.204-1.525-.563-2.166l4.7-4.7h3.133c.892 0 1.615-.723 1.615-1.615v-3.23C26 5.722 25.277 5 24.385 5h-3.231c-.892 0-1.616.723-1.616 1.615v3.133l-4.699 4.7a4.422 4.422 0 0 0-2.166-.563h-.404V11.46h.404c.892 0 1.616-.723 1.616-1.615v-3.23c0-.893-.724-1.616-1.616-1.616h-3.23zm.808 2.423v1.615h1.615V7.423H10.25zm-.808 8.885a2.02 2.02 0 0 0-2.019 2.019v3.23a2.02 2.02 0 0 0 2.02 2.02h3.23a2.02 2.02 0 0 0 2.02-2.02v-3.23a2.02 2.02 0 0 0-2.02-2.02h-3.23zm12.52-7.27V7.423h1.615v1.615H21.96zm0 10.097v1.615h1.615v-1.615H21.96z"/></svg>