<svg xmlns="http://www.w3.org/2000/svg" width="32" height="32" fill="currentColor"><path d="m5.881 11.906-.006.02v2.335a4.03 4.03 0 0 0 1.304 2.972v7.028a2.734 2.734 0 0 0 2.734 2.734h12.174a2.734 2.734 0 0 0 2.734-2.734v-7.028a4.028 4.028 0 0 0 1.304-2.972v-2.335l-.006-.02-1.388-4.162a2.734 2.734 0 0 0-2.593-1.869H9.862a2.734 2.734 0 0 0-2.593 1.87l-1.389 4.16zm3.287 12.355v-6.03a4.029 4.029 0 0 0 3.788-1.316A4.029 4.029 0 0 0 16 18.299a4.029 4.029 0 0 0 3.044-1.384 4.029 4.029 0 0 0 3.787 1.315v6.03a.744.744 0 0 1-.744.745h-3.353v-3.353c0-1.03-.835-1.864-1.864-1.864h-1.74c-1.03 0-1.864.835-1.864 1.864v3.353H9.913a.745.745 0 0 1-.745-.744zM7.864 13.08h4.098v1.18a2.049 2.049 0 0 1-4.098 0v-1.18zm6.087 1.18v-1.18h4.098v1.18a2.049 2.049 0 1 1-4.098 0zm6.087 0v-1.18h4.098v1.18a2.049 2.049 0 0 1-4.098 0zm3.712-3.169H8.25l.906-2.719a.745.745 0 0 1 .706-.509h12.276c.32 0 .605.205.706.51l.906 2.718z" stroke="#1A1A1A" stroke-width=".25"/></svg>