<svg xmlns="http://www.w3.org/2000/svg" width="32" height="32" fill="currentColor"><path d="M20.973 12.608a1.69 1.69 0 1 0 0-3.381 1.69 1.69 0 0 0 0 3.38z"/><path fill-rule="evenodd" clip-rule="evenodd" d="M18.058 5a6.34 6.34 0 0 0-4.566 1.942L6.3 14.41a4.65 4.65 0 0 0 .062 6.512l4.899 4.9a4.227 4.227 0 0 0 5.92.055l8.026-7.728a5.494 5.494 0 0 0 1.683-3.958v-3.697A5.495 5.495 0 0 0 21.395 5h-3.337zm-2.74 3.701a3.804 3.804 0 0 1 2.74-1.165h3.337a2.959 2.959 0 0 1 2.96 2.959v3.696c0 .804-.328 1.574-.907 2.132l-8.026 7.728a1.69 1.69 0 0 1-2.368-.023l-4.9-4.899a2.113 2.113 0 0 1-.027-2.96l7.191-7.468z"/></svg>