<svg xmlns="http://www.w3.org/2000/svg" width="32" height="32" fill="currentColor"><path fill-rule="evenodd" clip-rule="evenodd" d="M8.92 8.456c.465-.1 1.13-.117 1.788-.087.326.015.73.253 1.038.79.458.804 1.091 1.716 1.875 2.444.773.717 1.822 1.372 3.086 1.372v-2.5c-.373 0-.84-.199-1.385-.705-.534-.495-1.02-1.175-1.405-1.85-.576-1.01-1.64-1.981-3.094-2.048-.726-.033-1.7-.032-2.516.16-.257.06-.49.175-.656.267a6.551 6.551 0 0 0-.56.355c-.373.26-.793.592-1.215.943A61.304 61.304 0 0 0 3.42 9.778a3.695 3.695 0 0 0-1.02 3.737l1.225 4.228a1.75 1.75 0 0 0 2.531 1.043l2.088-1.162v7.88a2.75 2.75 0 0 0 2.75 2.75h5.713v-2.5h-5.713a.25.25 0 0 1-.25-.25v-9.155a1.75 1.75 0 0 0-2.6-1.53l-2.38 1.324-.962-3.324c-.13-.447 0-.912.322-1.212a58.968 58.968 0 0 1 2.35-2.088c.397-.33.757-.612 1.048-.814a4.12 4.12 0 0 1 .399-.25zm13.488-.086c.592-.022 1.158.001 1.54.094-.01-.003-.009-.002.006.006.039.02.166.084.398.251.282.203.618.482.986.813a40.341 40.341 0 0 1 2.105 2.069c.27.283.38.699.272 1.109l-.96 3.69-1.817-1.33c-1.156-.846-2.784-.02-2.784 1.413v9.018a.25.25 0 0 1-.25.25h-5.197v2.5h5.197a2.75 2.75 0 0 0 2.75-2.75v-7.54l1.514 1.11a1.75 1.75 0 0 0 2.727-.972l1.24-4.76a3.67 3.67 0 0 0-.883-3.463 42.742 42.742 0 0 0-2.243-2.204 14.8 14.8 0 0 0-1.196-.982c-.344-.247-.805-.544-1.278-.659-.725-.174-1.57-.186-2.22-.161-1.498.055-2.577 1.08-3.137 2.127-.36.671-.809 1.338-1.295 1.82-.502.496-.9.656-1.176.656v2.5c1.226 0 2.222-.675 2.934-1.38.728-.72 1.315-1.621 1.74-2.416.3-.558.706-.797 1.027-.81zm-8.81 9.318c0-.96.178-1.736.396-1.736h2.638c.218 0 .395.777.395 1.736s-.177 1.736-.395 1.736h-2.638c-.218 0-.395-.777-.395-1.736z"/></svg>