<svg xmlns="http://www.w3.org/2000/svg" width="32" height="32" fill="currentColor"><path fill-rule="evenodd" clip-rule="evenodd" d="M12.192 6.271a1.27 1.27 0 1 0-2.538 0v.69c-.416.097-.81.233-1.189.427a6.35 6.35 0 0 0-2.773 2.777c-.383.753-.543 1.567-.619 2.493C5 13.558 5 14.67 5 16.047v2.481c0 1.378 0 2.489.073 3.389.076.926.236 1.74.619 2.493a6.351 6.351 0 0 0 2.773 2.777c.752.384 1.564.544 2.49.62.898.073 2.007.073 3.383.073h5.726c.545 0 .916 0 1.244-.034a6.35 6.35 0 0 0 5.658-5.667c.034-.327.034-.7.034-1.245v-4.887c0-1.378 0-2.49-.073-3.389-.076-.926-.236-1.74-.619-2.493a6.35 6.35 0 0 0-2.773-2.777 5.198 5.198 0 0 0-1.189-.428v-.689a1.27 1.27 0 1 0-2.538 0v.438c-.632-.014-1.344-.014-2.146-.014h-3.324c-.802 0-1.514 0-2.146.014v-.438zM9.617 9.653c.335-.17.776-.288 1.544-.35.783-.065 1.789-.066 3.231-.066h3.216c1.442 0 2.448.001 3.23.065.769.063 1.21.18 1.544.35a3.81 3.81 0 0 1 1.665 1.667c.17.335.287.777.35 1.546.025.306.04.646.05 1.033H7.553c.01-.387.024-.727.05-1.033.062-.77.18-1.211.35-1.546a3.81 3.81 0 0 1 1.663-1.666zM7.538 16.44v2.034c0 1.445.001 2.452.065 3.236.063.769.18 1.21.35 1.546a3.81 3.81 0 0 0 1.664 1.666c.335.17.776.288 1.544.35.783.065 1.789.066 3.231.066h5.595c.651 0 .88-.002 1.06-.02a3.81 3.81 0 0 0 3.394-3.4c.019-.18.02-.41.02-1.062V16.44H7.539z"/></svg>