<svg xmlns="http://www.w3.org/2000/svg" width="32" height="32" fill="currentColor"><path d="M20.578 5c.647 0 1.172.526 1.172 1.175v1.958c0 .649-.525 1.175-1.172 1.175a1.173 1.173 0 0 1-1.172-1.175V6.175c0-.649.525-1.175 1.172-1.175zm3.954 4.747 1.562-1.567a1.177 1.177 0 0 0 0-1.661 1.17 1.17 0 0 0-1.657 0l-1.563 1.566a1.177 1.177 0 0 0 0 1.662 1.17 1.17 0 0 0 1.658 0zM5.344 14.79a5.085 5.085 0 0 1 5.078-5.09h6.25a1.174 1.174 0 0 0 0-2.35h-6.25C6.322 7.35 3 10.68 3 14.79v1.175a7.441 7.441 0 0 0 5.078 7.061v3.12c0 .444.25.85.645 1.05.395.2.869.159 1.224-.105l4.966-3.686h2.54c4.1 0 7.422-3.33 7.422-7.44 0-.649-.525-1.175-1.172-1.175-.647 0-1.172.526-1.172 1.175a5.085 5.085 0 0 1-5.078 5.09h-2.927c-.251 0-.495.082-.697.231l-3.407 2.529v-1.694c0-.565-.4-1.05-.954-1.155a5.09 5.09 0 0 1-4.124-5.001V14.79z"/><path d="M8.86 12.44c-.648 0-1.172.527-1.172 1.175 0 .65.524 1.175 1.171 1.175h8.594c.647 0 1.172-.526 1.172-1.175s-.525-1.175-1.172-1.175H8.86zm-1.172 4.7c0-.65.524-1.175 1.171-1.175h5.47c.646 0 1.171.526 1.171 1.175s-.525 1.174-1.172 1.174H8.86a1.173 1.173 0 0 1-1.171-1.174zm19.14-3.916c.647 0 1.172-.526 1.172-1.175s-.525-1.175-1.172-1.175h-1.953c-.647 0-1.172.526-1.172 1.175s.525 1.175 1.172 1.175h1.953z"/></svg>